<svg width="149" height="53" viewBox="0 0 149 53" fill="none" xmlns="http://www.w3.org/2000/svg">
<path d="M0.82825 52V45.304C3.90025 42.76 6.87625 40.24 9.75625 37.744C12.6843 35.248 15.2763 32.776 17.5323 30.328C19.8363 27.88 21.6603 25.504 23.0043 23.2C24.3963 20.848 25.0923 18.568 25.0923 16.36C25.0923 14.296 24.5163 12.472 23.3643 10.888C22.2603 9.304 20.4123 8.512 17.8203 8.512C15.1803 8.512 13.1883 9.376 11.8443 11.104C10.5003 12.832 9.82825 14.92 9.82825 17.368H0.90025C0.99625 13.672 1.81225 10.6 3.34825 8.152C4.88425 5.656 6.92425 3.808 9.46825 2.608C12.0123 1.36 14.8683 0.735999 18.0363 0.735999C23.1723 0.735999 27.1563 2.152 29.9883 4.984C32.8683 7.768 34.3083 11.392 34.3083 15.856C34.3083 18.64 33.6603 21.352 32.3643 23.992C31.1163 26.632 29.4603 29.176 27.3963 31.624C25.3323 34.072 23.1003 36.376 20.7003 38.536C18.3003 40.648 15.9723 42.616 13.7163 44.44H35.5323V52H0.82825ZM63.4975 52.864C58.8415 52.864 54.8575 51.784 51.5455 49.624C48.2335 47.416 45.6655 44.368 43.8415 40.48C42.0655 36.544 41.1775 31.984 41.1775 26.8C41.1775 21.664 42.0655 17.128 43.8415 13.192C45.6655 9.256 48.2335 6.208 51.5455 4.048C54.8575 1.84 58.8415 0.735999 63.4975 0.735999C68.1535 0.735999 72.1375 1.84 75.4495 4.048C78.7615 6.208 81.3055 9.256 83.0815 13.192C84.9055 17.128 85.8175 21.664 85.8175 26.8C85.8175 31.984 84.9055 36.544 83.0815 40.48C81.3055 44.368 78.7615 47.416 75.4495 49.624C72.1375 51.784 68.1535 52.864 63.4975 52.864ZM63.4975 44.584C67.2895 44.584 70.3855 43 72.7855 39.832C75.1855 36.664 76.3855 32.32 76.3855 26.8C76.3855 21.28 75.1855 16.936 72.7855 13.768C70.3855 10.6 67.2895 9.016 63.4975 9.016C59.6575 9.016 56.5375 10.6 54.1375 13.768C51.7855 16.936 50.6095 21.28 50.6095 26.8C50.6095 32.32 51.7855 36.664 54.1375 39.832C56.5375 43 59.6575 44.584 63.4975 44.584ZM104.319 26.368C102.015 26.368 99.9267 25.864 98.0547 24.856C96.1827 23.8 94.6947 22.312 93.5907 20.392C92.4867 18.472 91.9347 16.192 91.9347 13.552C91.9347 10.912 92.4867 8.632 93.5907 6.712C94.6947 4.792 96.1827 3.328 98.0547 2.32C99.9267 1.264 102.039 0.735999 104.391 0.735999C106.695 0.735999 108.759 1.264 110.583 2.32C112.455 3.328 113.943 4.792 115.047 6.712C116.151 8.632 116.703 10.912 116.703 13.552C116.703 16.192 116.151 18.472 115.047 20.392C113.943 22.312 112.455 23.8 110.583 24.856C108.711 25.864 106.623 26.368 104.319 26.368ZM101.583 52L130.023 1.6H139.023L110.583 52H101.583ZM104.319 19.96C105.711 19.96 106.911 19.432 107.919 18.376C108.927 17.272 109.431 15.664 109.431 13.552C109.431 11.44 108.927 9.832 107.919 8.728C106.959 7.624 105.759 7.072 104.319 7.072C102.879 7.072 101.655 7.624 100.647 8.728C99.6867 9.832 99.2067 11.44 99.2067 13.552C99.2067 15.664 99.6867 17.272 100.647 18.376C101.655 19.432 102.879 19.96 104.319 19.96ZM136.575 52.864C134.271 52.864 132.183 52.36 130.311 51.352C128.439 50.296 126.951 48.808 125.847 46.888C124.743 44.968 124.191 42.688 124.191 40.048C124.191 37.408 124.743 35.152 125.847 33.28C126.951 31.36 128.439 29.896 130.311 28.888C132.183 27.832 134.295 27.304 136.647 27.304C138.951 27.304 141.015 27.832 142.839 28.888C144.711 29.896 146.199 31.36 147.303 33.28C148.407 35.152 148.959 37.408 148.959 40.048C148.959 42.688 148.407 44.968 147.303 46.888C146.199 48.808 144.711 50.296 142.839 51.352C141.015 52.36 138.927 52.864 136.575 52.864ZM136.575 46.456C138.015 46.456 139.215 45.928 140.175 44.872C141.183 43.768 141.687 42.16 141.687 40.048C141.687 37.936 141.183 36.328 140.175 35.224C139.215 34.12 138.015 33.568 136.575 33.568C135.135 33.568 133.911 34.12 132.903 35.224C131.943 36.328 131.463 37.936 131.463 40.048C131.463 42.16 131.943 43.768 132.903 44.872C133.911 45.928 135.135 46.456 136.575 46.456Z" fill="#4F4F4F"/>
</svg>
