<svg width="99" height="53" viewBox="0 0 99 53" fill="none" xmlns="http://www.w3.org/2000/svg">
<path d="M0.711063 52V45.304C3.78306 42.76 6.75906 40.24 9.63906 37.744C12.5671 35.248 15.1591 32.776 17.4151 30.328C19.7191 27.88 21.5431 25.504 22.8871 23.2C24.2791 20.848 24.9751 18.568 24.9751 16.36C24.9751 14.296 24.3991 12.472 23.2471 10.888C22.1431 9.304 20.2951 8.512 17.7031 8.512C15.0631 8.512 13.0711 9.376 11.7271 11.104C10.3831 12.832 9.71106 14.92 9.71106 17.368H0.783063C0.879063 13.672 1.69506 10.6 3.23106 8.152C4.76706 5.656 6.80706 3.808 9.35106 2.608C11.8951 1.36 14.7511 0.735999 17.9191 0.735999C23.0551 0.735999 27.0391 2.152 29.8711 4.984C32.7511 7.768 34.1911 11.392 34.1911 15.856C34.1911 18.64 33.5431 21.352 32.2471 23.992C30.9991 26.632 29.3431 29.176 27.2791 31.624C25.2151 34.072 22.9831 36.376 20.5831 38.536C18.1831 40.648 15.8551 42.616 13.5991 44.44H35.4151V52H0.711063ZM53.4359 26.368C51.1319 26.368 49.0439 25.864 47.1719 24.856C45.2999 23.8 43.8119 22.312 42.7079 20.392C41.6039 18.472 41.0519 16.192 41.0519 13.552C41.0519 10.912 41.6039 8.632 42.7079 6.712C43.8119 4.792 45.2999 3.328 47.1719 2.32C49.0439 1.264 51.1559 0.735999 53.5079 0.735999C55.8119 0.735999 57.8759 1.264 59.6999 2.32C61.5719 3.328 63.0599 4.792 64.1639 6.712C65.2679 8.632 65.8199 10.912 65.8199 13.552C65.8199 16.192 65.2679 18.472 64.1639 20.392C63.0599 22.312 61.5719 23.8 59.6999 24.856C57.8279 25.864 55.7399 26.368 53.4359 26.368ZM50.6999 52L79.1399 1.6H88.1399L59.6999 52H50.6999ZM53.4359 19.96C54.8279 19.96 56.0279 19.432 57.0359 18.376C58.0439 17.272 58.5479 15.664 58.5479 13.552C58.5479 11.44 58.0439 9.832 57.0359 8.728C56.0759 7.624 54.8759 7.072 53.4359 7.072C51.9959 7.072 50.7719 7.624 49.7639 8.728C48.8039 9.832 48.3239 11.44 48.3239 13.552C48.3239 15.664 48.8039 17.272 49.7639 18.376C50.7719 19.432 51.9959 19.96 53.4359 19.96ZM85.6919 52.864C83.3879 52.864 81.2999 52.36 79.4279 51.352C77.5559 50.296 76.0679 48.808 74.9639 46.888C73.8599 44.968 73.3079 42.688 73.3079 40.048C73.3079 37.408 73.8599 35.152 74.9639 33.28C76.0679 31.36 77.5559 29.896 79.4279 28.888C81.2999 27.832 83.4119 27.304 85.7639 27.304C88.0679 27.304 90.1319 27.832 91.9559 28.888C93.8279 29.896 95.3159 31.36 96.4199 33.28C97.5239 35.152 98.0759 37.408 98.0759 40.048C98.0759 42.688 97.5239 44.968 96.4199 46.888C95.3159 48.808 93.8279 50.296 91.9559 51.352C90.1319 52.36 88.0439 52.864 85.6919 52.864ZM85.6919 46.456C87.1319 46.456 88.3319 45.928 89.2919 44.872C90.2999 43.768 90.8039 42.16 90.8039 40.048C90.8039 37.936 90.2999 36.328 89.2919 35.224C88.3319 34.12 87.1319 33.568 85.6919 33.568C84.2519 33.568 83.0279 34.12 82.0199 35.224C81.0599 36.328 80.5799 37.936 80.5799 40.048C80.5799 42.16 81.0599 43.768 82.0199 44.872C83.0279 45.928 84.2519 46.456 85.6919 46.456Z" fill="#4F4F4F"/>
</svg>
