 <svg width="152" height="53" viewBox="0 0 152 53" fill="none" xmlns="http://www.w3.org/2000/svg">
<path d="M19.1907 52.864C15.4947 52.864 12.3027 52.216 9.61466 50.92C6.97466 49.624 4.88666 47.848 3.35066 45.592C1.86266 43.288 0.998656 40.696 0.758656 37.816H9.75866C10.1907 39.88 11.2467 41.608 12.9267 43C14.6067 44.344 16.6947 45.016 19.1907 45.016C21.8787 45.016 24.0627 44.032 25.7427 42.064C27.4707 40.096 28.3347 37.648 28.3347 34.72C28.3347 31.696 27.4707 29.296 25.7427 27.52C24.0627 25.744 21.9267 24.856 19.3347 24.856C17.1747 24.856 15.3027 25.384 13.7187 26.44C12.1347 27.496 11.0067 28.816 10.3347 30.4H1.47866L5.79866 1.6H33.7347V9.664H12.7107L10.4067 21.328C11.4627 20.176 12.9027 19.24 14.7267 18.52C16.5507 17.752 18.5907 17.368 20.8467 17.368C24.4467 17.368 27.4467 18.184 29.8467 19.816C32.2467 21.4 34.0707 23.512 35.3187 26.152C36.5667 28.744 37.1907 31.576 37.1907 34.648C37.1907 38.152 36.4227 41.272 34.8867 44.008C33.3987 46.744 31.2867 48.904 28.5507 50.488C25.8627 52.072 22.7427 52.864 19.1907 52.864ZM66.4311 52.864C61.7751 52.864 57.7911 51.784 54.4791 49.624C51.1671 47.416 48.5991 44.368 46.7751 40.48C44.9991 36.544 44.1111 31.984 44.1111 26.8C44.1111 21.664 44.9991 17.128 46.7751 13.192C48.5991 9.256 51.1671 6.208 54.4791 4.048C57.7911 1.84 61.7751 0.735999 66.4311 0.735999C71.0871 0.735999 75.0711 1.84 78.3831 4.048C81.6951 6.208 84.2391 9.256 86.0151 13.192C87.8391 17.128 88.7511 21.664 88.7511 26.8C88.7511 31.984 87.8391 36.544 86.0151 40.48C84.2391 44.368 81.6951 47.416 78.3831 49.624C75.0711 51.784 71.0871 52.864 66.4311 52.864ZM66.4311 44.584C70.2231 44.584 73.3191 43 75.7191 39.832C78.1191 36.664 79.3191 32.32 79.3191 26.8C79.3191 21.28 78.1191 16.936 75.7191 13.768C73.3191 10.6 70.2231 9.016 66.4311 9.016C62.5911 9.016 59.4711 10.6 57.0711 13.768C54.7191 16.936 53.5431 21.28 53.5431 26.8C53.5431 32.32 54.7191 36.664 57.0711 39.832C59.4711 43 62.5911 44.584 66.4311 44.584ZM107.252 26.368C104.948 26.368 102.86 25.864 100.988 24.856C99.1163 23.8 97.6283 22.312 96.5243 20.392C95.4203 18.472 94.8683 16.192 94.8683 13.552C94.8683 10.912 95.4203 8.632 96.5243 6.712C97.6283 4.792 99.1163 3.328 100.988 2.32C102.86 1.264 104.972 0.735999 107.324 0.735999C109.628 0.735999 111.692 1.264 113.516 2.32C115.388 3.328 116.876 4.792 117.98 6.712C119.084 8.632 119.636 10.912 119.636 13.552C119.636 16.192 119.084 18.472 117.98 20.392C116.876 22.312 115.388 23.8 113.516 24.856C111.644 25.864 109.556 26.368 107.252 26.368ZM104.516 52L132.956 1.6H141.956L113.516 52H104.516ZM107.252 19.96C108.644 19.96 109.844 19.432 110.852 18.376C111.86 17.272 112.364 15.664 112.364 13.552C112.364 11.44 111.86 9.832 110.852 8.728C109.892 7.624 108.692 7.072 107.252 7.072C105.812 7.072 104.588 7.624 103.58 8.728C102.62 9.832 102.14 11.44 102.14 13.552C102.14 15.664 102.62 17.272 103.58 18.376C104.588 19.432 105.812 19.96 107.252 19.96ZM139.508 52.864C137.204 52.864 135.116 52.36 133.244 51.352C131.372 50.296 129.884 48.808 128.78 46.888C127.676 44.968 127.124 42.688 127.124 40.048C127.124 37.408 127.676 35.152 128.78 33.28C129.884 31.36 131.372 29.896 133.244 28.888C135.116 27.832 137.228 27.304 139.58 27.304C141.884 27.304 143.948 27.832 145.772 28.888C147.644 29.896 149.132 31.36 150.236 33.28C151.34 35.152 151.892 37.408 151.892 40.048C151.892 42.688 151.34 44.968 150.236 46.888C149.132 48.808 147.644 50.296 145.772 51.352C143.948 52.36 141.86 52.864 139.508 52.864ZM139.508 46.456C140.948 46.456 142.148 45.928 143.108 44.872C144.116 43.768 144.62 42.16 144.62 40.048C144.62 37.936 144.116 36.328 143.108 35.224C142.148 34.12 140.948 33.568 139.508 33.568C138.068 33.568 136.844 34.12 135.836 35.224C134.876 36.328 134.396 37.936 134.396 40.048C134.396 42.16 134.876 43.768 135.836 44.872C136.844 45.928 138.068 46.456 139.508 46.456Z" fill="#4F4F4F"/>
</svg>
