<svg width="134" height="53" viewBox="0 0 134 53" fill="none" xmlns="http://www.w3.org/2000/svg">
<path d="M8.50472 52V12.112L0.224719 14.056V7L12.3927 1.6H18.0807V52H8.50472ZM48.517 52.864C43.861 52.864 39.877 51.784 36.565 49.624C33.253 47.416 30.685 44.368 28.861 40.48C27.085 36.544 26.197 31.984 26.197 26.8C26.197 21.664 27.085 17.128 28.861 13.192C30.685 9.256 33.253 6.208 36.565 4.048C39.877 1.84 43.861 0.735999 48.517 0.735999C53.173 0.735999 57.157 1.84 60.469 4.048C63.781 6.208 66.325 9.256 68.101 13.192C69.925 17.128 70.837 21.664 70.837 26.8C70.837 31.984 69.925 36.544 68.101 40.48C66.325 44.368 63.781 47.416 60.469 49.624C57.157 51.784 53.173 52.864 48.517 52.864ZM48.517 44.584C52.309 44.584 55.405 43 57.805 39.832C60.205 36.664 61.405 32.32 61.405 26.8C61.405 21.28 60.205 16.936 57.805 13.768C55.405 10.6 52.309 9.016 48.517 9.016C44.677 9.016 41.557 10.6 39.157 13.768C36.805 16.936 35.629 21.28 35.629 26.8C35.629 32.32 36.805 36.664 39.157 39.832C41.557 43 44.677 44.584 48.517 44.584ZM89.3382 26.368C87.0342 26.368 84.9462 25.864 83.0742 24.856C81.2022 23.8 79.7142 22.312 78.6102 20.392C77.5062 18.472 76.9542 16.192 76.9542 13.552C76.9542 10.912 77.5062 8.632 78.6102 6.712C79.7142 4.792 81.2022 3.328 83.0742 2.32C84.9462 1.264 87.0582 0.735999 89.4102 0.735999C91.7142 0.735999 93.7782 1.264 95.6022 2.32C97.4742 3.328 98.9622 4.792 100.066 6.712C101.17 8.632 101.722 10.912 101.722 13.552C101.722 16.192 101.17 18.472 100.066 20.392C98.9622 22.312 97.4742 23.8 95.6022 24.856C93.7302 25.864 91.6422 26.368 89.3382 26.368ZM86.6022 52L115.042 1.6H124.042L95.6022 52H86.6022ZM89.3382 19.96C90.7302 19.96 91.9302 19.432 92.9382 18.376C93.9462 17.272 94.4502 15.664 94.4502 13.552C94.4502 11.44 93.9462 9.832 92.9382 8.728C91.9782 7.624 90.7782 7.072 89.3382 7.072C87.8982 7.072 86.6742 7.624 85.6662 8.728C84.7062 9.832 84.2262 11.44 84.2262 13.552C84.2262 15.664 84.7062 17.272 85.6662 18.376C86.6742 19.432 87.8982 19.96 89.3382 19.96ZM121.594 52.864C119.29 52.864 117.202 52.36 115.33 51.352C113.458 50.296 111.97 48.808 110.866 46.888C109.762 44.968 109.21 42.688 109.21 40.048C109.21 37.408 109.762 35.152 110.866 33.28C111.97 31.36 113.458 29.896 115.33 28.888C117.202 27.832 119.314 27.304 121.666 27.304C123.97 27.304 126.034 27.832 127.858 28.888C129.73 29.896 131.218 31.36 132.322 33.28C133.426 35.152 133.978 37.408 133.978 40.048C133.978 42.688 133.426 44.968 132.322 46.888C131.218 48.808 129.73 50.296 127.858 51.352C126.034 52.36 123.946 52.864 121.594 52.864ZM121.594 46.456C123.034 46.456 124.234 45.928 125.194 44.872C126.202 43.768 126.706 42.16 126.706 40.048C126.706 37.936 126.202 36.328 125.194 35.224C124.234 34.12 123.034 33.568 121.594 33.568C120.154 33.568 118.93 34.12 117.922 35.224C116.962 36.328 116.482 37.936 116.482 40.048C116.482 42.16 116.962 43.768 117.922 44.872C118.93 45.928 120.154 46.456 121.594 46.456Z" fill="#4F4F4F"/>
</svg>
